<svg xmlns="http://www.w3.org/2000/svg" width="21" height="22" fill="none" viewBox="0 0 21 22"><g id="Group 4186" fill="#000"><path id="Vector" d="M20.765 11.285c0 1.94.018 3.88-.004 5.819-.033 2.75-1.786 4.579-4.545 4.617-3.879.054-7.758.054-11.637 0-2.761-.037-4.535-1.857-4.557-4.61-.03-3.879-.03-7.758 0-11.637C.043 2.707 1.822.904 4.57.88a692.05 692.05 0 0 1 11.638 0c2.754.023 4.52 1.824 4.553 4.584.022 1.94.004 3.88.004 5.82Zm-1.803.04c0-1.896.01-3.793-.003-5.69-.014-2.002-.977-2.992-2.958-2.998-3.753-.016-7.506-.016-11.259 0-1.915.008-2.902 1.004-2.91 2.919a1542.77 1542.77 0 0 0 0 11.5c.006 1.857.978 2.852 2.83 2.863 3.833.023 7.667.023 11.5 0 1.785-.012 2.768-1.01 2.79-2.782.028-1.936.009-3.873.01-5.81v-.002Z"/><path id="Vector_2" d="M15.779 11.267c.008 3.007-2.35 5.41-5.334 5.436-3.038.027-5.45-2.393-5.435-5.453.015-2.982 2.43-5.398 5.392-5.392 2.96.007 5.368 2.423 5.377 5.409Zm-1.744 0c-.014-1.98-1.64-3.583-3.635-3.585-2.002-.003-3.627 1.589-3.646 3.571-.019 2.006 1.701 3.72 3.693 3.682 1.96-.037 3.601-1.715 3.588-3.668Z"/></g></svg>