<svg xmlns="http://www.w3.org/2000/svg" width="29" height="29" fill="none" viewBox="0 0 29 29"><g id="twitter" clip-path="url(#clip0_579_1937)"><g id="Clip path group"><mask id="mask0_579_1937" width="29" height="29" x="0" y="0" maskUnits="userSpaceOnUse" style="mask-type:luminance"><g id="clip0_84_15697"><path id="Vector" fill="#fff" d="M28.244.101h-28v28h28v-28Z"/></g></mask><g mask="url(#mask0_579_1937)"><g id="Group"><path id="Vector_2" fill="#000" d="M24.962.101H3.525A3.281 3.281 0 0 0 .244 3.382V24.82a3.281 3.281 0 0 0 3.28 3.281h21.438a3.281 3.281 0 0 0 3.282-3.281V3.382a3.281 3.281 0 0 0-3.282-3.28Z"/><path id="Vector_3" fill="#fff" d="M19.707 5.57h2.895l-6.324 7.227 7.44 9.835h-5.826l-4.562-5.964-5.22 5.964H5.214l6.763-7.73L4.841 5.57h5.972l4.124 5.452 4.77-5.452ZM18.691 20.9h1.604L9.942 7.21H8.221L18.69 20.9Z"/></g></g></g></g><defs><clipPath id="clip0_579_1937"><path fill="#fff" d="M.244.101h28v28h-28z"/></clipPath></defs></svg>