<svg xmlns="http://www.w3.org/2000/svg" width="23" height="16" fill="none" viewBox="0 0 23 16"><g id="Group 4190"><path id="Vector" fill="#000" d="M11.513.799c2.582 0 5.164-.048 7.745.016 1.764.044 2.636.8 2.955 2.522a27.083 27.083 0 0 1-.04 10.19c-.283 1.46-1.052 2.233-2.524 2.252-5.397.07-10.795.076-16.194.018-1.437-.015-2.276-.81-2.551-2.236-.675-3.505-.718-7.03.04-10.53C1.258 1.576 2.142.851 3.654.818 6.274.762 8.896.803 11.517.803l-.004-.004Zm-2.616 3.78v7.061l6.789-3.527L8.897 4.58Z"/></g></svg>